<?xml version="1.0" standalone="no"?>
<!DOCTYPE svg PUBLIC "-//W3C//DTD SVG 20010904//EN"
 "http://www.w3.org/TR/2001/REC-SVG-20010904/DTD/svg10.dtd">
<svg version="1.0" xmlns="http://www.w3.org/2000/svg"
 width="512.000000pt" height="512.000000pt" viewBox="0 0 512.000000 512.000000"
 preserveAspectRatio="xMidYMid meet">

<g transform="translate(0.000000,512.000000) scale(0.100000,-0.100000)"
fill="#000000" stroke="none">
<path d="M408 5023 c-57 -54 -104 -102 -105 -108 -2 -5 180 -203 403 -440
l405 -430 -410 -3 c-226 -1 -411 -6 -411 -10 0 -4 398 -452 885 -997 l884
-990 1 -872 0 -873 -415 0 -415 0 0 -150 0 -150 1000 0 1000 0 0 150 0 150
-435 0 -435 0 0 870 0 870 430 483 c237 265 436 486 443 490 7 6 35 -4 74 -26
91 -52 186 -87 293 -109 138 -29 357 -21 485 16 116 34 199 73 300 141 89 59
220 190 276 275 253 385 234 867 -49 1221 -269 337 -728 472 -1132 334 -337
-115 -603 -409 -677 -747 l-16 -78 -631 1 -631 0 -465 494 c-256 272 -484 515
-507 540 l-42 46 -103 -98z m3035 -1317 c-15 -18 -104 -120 -198 -225 l-170
-191 -865 1 -865 0 -155 176 c-85 96 -174 197 -198 224 l-44 49 1262 0 1261 0
-28 -34z"/>
</g>
</svg>
